<svg width="412" height="917" viewBox="0 0 412 917" fill="none" xmlns="http://www.w3.org/2000/svg">
<rect width="412" height="917" rx="30" fill="white"/>
<rect x="152" y="903" width="108" height="4" rx="2" fill="#171D1B"/>
<path d="M194.922 477.352C194.922 477.352 196.286 470.29 197.161 466.156H209.172C224.236 466.156 232.176 443.152 213.04 439.895H198.771C196.896 439.895 195.292 441.238 194.963 443.084L194.514 445.595H210.19C220.368 445.595 220.368 460.659 206.932 460.659H198.382H191.378L189.075 472.041C188.519 474.786 190.618 477.352 193.419 477.352H194.922Z" fill="#0050C7"/>
<path d="M206.519 453.334C205.96 453.6 204.801 452.919 204.233 454.326C203.956 455.21 202.306 460.264 201.68 458.243C200.251 453.189 200.251 451.58 198.673 455.859C197.35 458.845 197.847 459.368 197.239 458.008C196.928 457.311 195.065 453.989 193.687 451.58H191.138C190.413 451.657 189.157 450.537 189.87 450.299H192.837C193.196 450.299 193.145 450.497 193.687 451.58C194.448 451.58 197.103 454.326 197.444 454.326C198.873 453.378 199.748 445.513 200.729 449.01C202.163 454.116 202.481 455.753 203.158 453.189C203.836 450.624 204.429 445.382 205.56 448.703C206.158 450.459 206.738 451.328 206.973 451.842C207.196 452.329 207.004 453.104 206.519 453.334Z" fill="#0050C7"/>
<ellipse cx="208.135" cy="453.085" rx="0.658274" ry="0.633836" fill="#0050C7"/>
<circle cx="209.715" cy="453.085" r="0.516752" fill="#0050C7"/>
<circle cx="211.039" cy="453.085" r="0.387564" fill="#0050C7"/>
</svg>
