<svg width="1404" height="177" viewBox="0 0 1404 177" fill="none" xmlns="http://www.w3.org/2000/svg">
<g clip-path="url(#clip0_547_12420)">
<path d="M235.872 178.745C225.068 178.745 215.178 176.418 206.202 171.764C197.392 167.11 190.328 160.461 185.008 151.817C179.856 143.008 177.279 132.452 177.279 120.152C177.279 108.849 179.108 98.46 182.764 88.9853C186.588 79.5107 191.907 71.2827 198.722 64.3013C205.537 57.32 213.432 51.9178 222.408 48.0947C231.551 44.2716 241.524 42.36 252.328 42.36C263.465 42.36 273.023 44.3547 281.002 48.344C289.147 52.3333 295.297 58.4005 299.452 66.5453C303.608 74.524 305.52 84.4973 305.187 96.4653C304.855 112.921 301.863 127.383 296.211 139.849C290.56 152.15 282.664 161.708 272.524 168.523C262.385 175.338 250.168 178.745 235.872 178.745ZM243.851 152.067C252.827 152.067 260.723 149.989 267.538 145.833C274.353 141.512 279.755 135.611 283.744 128.131C287.734 120.651 289.728 112.007 289.728 102.2C289.728 91.8942 286.653 83.7493 280.503 77.7653C274.353 71.7813 265.709 68.7893 254.572 68.7893C245.763 68.7893 237.867 70.9502 230.886 75.272C224.071 79.4276 218.668 85.2453 214.679 92.7253C210.69 100.205 208.695 108.849 208.695 118.656C208.695 128.962 211.77 137.107 217.92 143.091C224.071 149.075 232.714 152.067 243.851 152.067ZM276.514 177L282.498 146.581L290.975 111.176L295.214 75.5213L301.447 43.856H332.614L306.184 177H276.514ZM416.027 178.745C402.896 178.745 391.343 176.335 381.37 171.515C371.563 166.528 364 159.713 358.681 151.069C353.362 142.26 350.702 131.954 350.702 120.152C350.702 105.192 354.11 91.8942 360.925 80.2587C367.74 68.4569 377.131 59.2316 389.099 52.5827C401.067 45.7676 414.864 42.36 430.489 42.36C443.953 42.36 455.505 45.0196 465.146 50.3387C474.953 55.4916 482.516 63.2209 487.835 73.5267L461.157 87.24C458.165 80.9236 453.843 76.2693 448.191 73.2773C442.706 70.2853 435.974 68.7893 427.995 68.7893C419.352 68.7893 411.539 70.9502 404.558 75.272C397.577 79.4276 392.091 85.2453 388.102 92.7253C384.113 100.205 382.118 108.849 382.118 118.656C382.118 128.962 385.193 137.107 391.343 143.091C397.494 149.075 406.22 152.067 417.523 152.067C424.837 152.067 431.652 150.571 437.969 147.579C444.285 144.587 449.604 139.932 453.926 133.616L476.865 149.075C470.715 158.383 462.237 165.697 451.433 171.016C440.628 176.169 428.827 178.745 416.027 178.745ZM561.698 178.745C548.401 178.745 536.848 176.335 527.041 171.515C517.234 166.528 509.588 159.713 504.102 151.069C498.783 142.26 496.124 131.954 496.124 120.152C496.124 105.026 499.448 91.6449 506.097 80.0093C512.746 68.3738 521.805 59.2316 533.274 52.5827C544.91 45.7676 558.125 42.36 572.918 42.36C585.385 42.36 596.19 44.6871 605.332 49.3413C614.474 53.9956 621.538 60.7276 626.525 69.5373C631.678 78.1809 634.254 88.5698 634.254 100.704C634.254 103.862 634.088 107.104 633.756 110.428C633.423 113.752 632.925 116.828 632.26 119.653H519.312L522.802 98.9587H617.549L604.833 105.94C606.163 97.4627 605.581 90.3982 603.088 84.7467C600.594 79.0951 596.605 74.7733 591.12 71.7813C585.634 68.7893 579.069 67.2933 571.422 67.2933C562.28 67.2933 554.302 69.4542 547.486 73.776C540.838 77.9316 535.685 83.9156 532.028 91.728C528.371 99.3742 526.542 108.35 526.542 118.656C526.542 129.46 529.618 137.772 535.768 143.589C542.084 149.407 551.808 152.316 564.94 152.316C572.42 152.316 579.567 151.152 586.382 148.825C593.198 146.332 598.849 142.924 603.337 138.603L616.302 160.295C609.321 166.445 601.01 171.099 591.369 174.257C581.894 177.249 572.004 178.745 561.698 178.745Z" fill="#0A69FA"/>
<path d="M651.743 177L688.644 -8.00533H719.811L703.355 74.7733L693.631 109.431L688.644 140.847L681.414 177H651.743ZM732.278 178.745C721.307 178.745 711.832 176.834 703.854 173.011C695.875 169.021 689.725 163.204 685.403 155.557C681.081 147.911 678.92 138.436 678.92 127.133C678.92 114.667 680.416 103.28 683.408 92.9747C686.566 82.5027 691.138 73.5267 697.122 66.0467C703.272 58.4004 710.586 52.5827 719.063 48.5933C727.706 44.4378 737.514 42.36 748.484 42.36C759.455 42.36 769.345 44.6871 778.155 49.3413C786.965 53.8293 793.946 60.4782 799.099 69.288C804.418 77.9316 807.078 88.4036 807.078 100.704C807.078 112.007 805.166 122.396 801.343 131.871C797.686 141.345 792.45 149.573 785.635 156.555C778.82 163.536 770.841 169.021 761.699 173.011C752.723 176.834 742.916 178.745 732.278 178.745ZM729.784 152.067C738.76 152.067 746.656 149.989 753.471 145.833C760.286 141.512 765.688 135.611 769.678 128.131C773.667 120.651 775.662 112.007 775.662 102.2C775.662 91.8942 772.586 83.7493 766.436 77.7653C760.286 71.7813 751.642 68.7893 740.506 68.7893C731.696 68.7893 723.8 70.9502 716.819 75.272C710.004 79.4276 704.602 85.2453 700.612 92.7253C696.623 100.205 694.628 108.849 694.628 118.656C694.628 128.962 697.703 137.107 703.854 143.091C710.004 149.075 718.647 152.067 729.784 152.067ZM891.987 178.745C878.689 178.745 867.137 176.335 857.33 171.515C847.523 166.528 839.877 159.713 834.391 151.069C829.072 142.26 826.413 131.954 826.413 120.152C826.413 105.026 829.737 91.6449 836.386 80.0093C843.035 68.3738 852.094 59.2316 863.563 52.5827C875.199 45.7676 888.413 42.36 903.207 42.36C915.674 42.36 926.478 44.6871 935.621 49.3413C944.763 53.9956 951.827 60.7276 956.814 69.5373C961.967 78.1809 964.543 88.5698 964.543 100.704C964.543 103.862 964.377 107.104 964.045 110.428C963.712 113.752 963.213 116.828 962.549 119.653H849.601L853.091 98.9587H947.838L935.122 105.94C936.452 97.4627 935.87 90.3982 933.377 84.7467C930.883 79.0951 926.894 74.7733 921.409 71.7813C915.923 68.7893 909.357 67.2933 901.711 67.2933C892.569 67.2933 884.59 69.4542 877.775 73.776C871.126 77.9316 865.973 83.9156 862.317 91.728C858.66 99.3742 856.831 108.35 856.831 118.656C856.831 129.46 859.906 137.772 866.057 143.589C872.373 149.407 882.097 152.316 895.229 152.316C902.709 152.316 909.856 151.152 916.671 148.825C923.486 146.332 929.138 142.924 933.626 138.603L946.591 160.295C939.61 166.445 931.299 171.099 921.658 174.257C912.183 177.249 902.293 178.745 891.987 178.745ZM1041.87 178.745C1031.07 178.745 1021.18 176.418 1012.2 171.764C1003.39 167.11 996.327 160.461 991.008 151.817C985.855 143.008 983.278 132.452 983.278 120.152C983.278 108.849 985.107 98.46 988.764 88.9853C992.587 79.5107 997.906 71.2827 1004.72 64.3013C1011.54 57.32 1019.43 51.9178 1028.41 48.0947C1037.55 44.2716 1047.52 42.36 1058.33 42.36C1069.46 42.36 1079.02 44.3547 1087 48.344C1095.15 52.3333 1101.3 58.4005 1105.45 66.5453C1109.61 74.524 1111.52 84.4973 1111.19 96.4653C1110.85 112.921 1107.86 127.383 1102.21 139.849C1096.56 152.15 1088.66 161.708 1078.52 168.523C1068.38 175.338 1056.17 178.745 1041.87 178.745ZM1049.85 152.067C1058.83 152.067 1066.72 149.989 1073.54 145.833C1080.35 141.512 1085.75 135.611 1089.74 128.131C1093.73 120.651 1095.73 112.007 1095.73 102.2C1095.73 91.8942 1092.65 83.7493 1086.5 77.7653C1080.35 71.7813 1071.71 68.7893 1060.57 68.7893C1051.76 68.7893 1043.87 70.9502 1036.88 75.272C1030.07 79.4276 1024.67 85.2453 1020.68 92.7253C1016.69 100.205 1014.69 108.849 1014.69 118.656C1014.69 128.962 1017.77 137.107 1023.92 143.091C1030.07 149.075 1038.71 152.067 1049.85 152.067ZM1082.51 177L1088.5 146.581L1096.97 111.176L1101.21 75.5213L1107.45 43.856H1138.61L1112.18 177H1082.51ZM1205.32 178.745C1196.68 178.745 1189.2 176.917 1182.88 173.26C1176.73 169.437 1172.24 164.118 1169.42 157.303C1166.76 150.321 1166.34 142.093 1168.17 132.619L1191.86 14.4347H1223.02L1199.34 132.369C1198.34 138.52 1199 143.506 1201.33 147.329C1203.66 151.152 1208.06 153.064 1214.55 153.064C1217.54 153.064 1220.53 152.648 1223.52 151.817C1226.68 150.82 1229.51 149.49 1232 147.828L1237.49 170.767C1232.83 173.759 1227.68 175.836 1222.03 177C1216.37 178.164 1210.81 178.745 1205.32 178.745ZM1159.19 69.7867L1164.18 44.8533H1252.69L1247.71 69.7867H1159.19ZM1309 178.745C1297.37 178.745 1286.48 177.332 1276.34 174.507C1266.2 171.681 1258.39 168.273 1252.9 164.284L1265.87 140.348C1271.35 144.171 1278.17 147.329 1286.31 149.823C1294.62 152.15 1303.27 153.313 1312.24 153.313C1322.55 153.313 1330.11 151.9 1334.93 149.075C1339.92 146.249 1342.41 142.343 1342.41 137.356C1342.41 133.699 1340.67 130.956 1337.18 129.128C1333.69 127.3 1329.2 125.804 1323.71 124.64C1318.39 123.476 1312.57 122.23 1306.26 120.9C1300.11 119.57 1294.29 117.742 1288.81 115.415C1283.49 113.088 1279.08 109.68 1275.59 105.192C1272.1 100.704 1270.35 94.72 1270.35 87.24C1270.35 77.7653 1273.01 69.7036 1278.33 63.0547C1283.65 56.4058 1291.05 51.336 1300.52 47.8453C1310.16 44.1885 1321.22 42.36 1333.69 42.36C1342.66 42.36 1351.47 43.3573 1360.11 45.352C1368.76 47.3467 1375.91 50.1724 1381.56 53.8293L1370.09 77.7653C1364.1 73.9422 1357.62 71.2827 1350.64 69.7867C1343.82 68.2907 1337.18 67.5427 1330.69 67.5427C1320.55 67.5427 1312.99 69.1218 1308 72.28C1303.18 75.272 1300.77 79.0951 1300.77 83.7493C1300.77 87.4062 1302.52 90.232 1306.01 92.2267C1309.5 94.2213 1313.9 95.8836 1319.22 97.2133C1324.71 98.3769 1330.53 99.6236 1336.68 100.953C1342.99 102.117 1348.81 103.862 1354.13 106.189C1359.62 108.516 1364.1 111.924 1367.59 116.412C1371.09 120.734 1372.83 126.552 1372.83 133.865C1372.83 143.506 1370.09 151.734 1364.6 158.549C1359.28 165.198 1351.8 170.268 1342.16 173.759C1332.52 177.083 1321.47 178.745 1309 178.745Z" fill="white"/>
<path d="M32.7952 177.48C32.7952 177.48 39.2619 144.017 43.4055 124.429H100.315C171.693 124.429 209.311 15.4331 118.642 0H51.0351C42.1523 0 34.5519 6.36741 32.9904 15.1119L30.8661 27.0078H105.138C153.366 27.0078 153.366 98.3857 89.7046 98.3857H49.1929H16.0072L5.09303 152.315C2.46048 165.322 12.4042 177.48 25.6758 177.48H32.7952Z" fill="#0A69FA"/>
<path d="M87.7463 63.6793C85.0941 64.9409 79.6045 61.7138 76.9121 68.3781C75.6019 72.5687 67.7854 96.5151 64.8191 86.9365C58.047 62.9902 58.047 55.3663 50.5689 75.6431C44.3002 89.7927 46.655 92.2669 43.7759 85.8231C42.3004 82.5206 33.4753 66.7833 26.9444 55.3664H14.8672C11.4345 55.7346 5.4821 50.4273 8.86179 49.2998H22.9183C24.6186 49.2998 24.3757 50.2353 26.9444 55.3664C30.5525 55.3664 43.1325 68.3781 44.7447 68.3781C51.5168 63.8882 55.6622 26.6196 60.3129 43.1893C67.1042 67.3857 68.6102 75.1413 71.8214 62.9902C75.0326 50.839 77.8421 26.0015 83.2005 41.7377C86.0326 50.0546 88.7817 54.1734 89.8947 56.6072C90.9515 58.9181 90.041 62.5877 87.7463 63.6793Z" fill="#0A69FA"/>
<ellipse cx="95.4041" cy="62.4976" rx="3.11899" ry="3.0032" fill="#0A69FA"/>
<circle cx="102.89" cy="62.4975" r="2.44844" fill="#0A69FA"/>
<circle cx="109.162" cy="62.4978" r="1.83633" fill="#0A69FA"/>
</g>
<defs>
<clipPath id="clip0_547_12420">
<rect width="1404" height="177" rx="40" fill="white"/>
</clipPath>
</defs>
</svg>
