<svg width="1404" height="177" viewBox="0 0 1404 177" fill="none" xmlns="http://www.w3.org/2000/svg">
<g clip-path="url(#clip0_547_12420)">
<path d="M892.231 178.745C878.933 178.745 867.38 176.335 857.573 171.515C847.766 166.528 840.12 159.713 834.635 151.069C829.316 142.26 826.656 131.954 826.656 120.152C826.656 105.026 829.98 91.6449 836.629 80.0093C843.278 68.3738 852.337 59.2316 863.807 52.5827C875.442 45.7676 888.657 42.36 903.451 42.36C915.917 42.36 926.722 44.6871 935.864 49.3413C945.006 53.9956 952.071 60.7276 957.057 69.5373C962.21 78.1809 964.787 88.5698 964.787 100.704C964.787 103.862 964.62 107.104 964.288 110.428C963.956 113.752 963.457 116.828 962.792 119.653H849.844L853.335 98.9587H948.081L935.365 105.94C936.695 97.4627 936.113 90.3982 933.62 84.7467C931.127 79.0951 927.137 74.7733 921.652 71.7813C916.167 68.7893 909.601 67.2933 901.955 67.2933C892.812 67.2933 884.834 69.4542 878.019 73.776C871.37 77.9316 866.217 83.9156 862.56 91.728C858.903 99.3742 857.075 108.35 857.075 118.656C857.075 129.46 860.15 137.772 866.3 143.589C872.616 149.407 882.34 152.316 895.472 152.316C902.952 152.316 910.1 151.152 916.915 148.825C923.73 146.332 929.381 142.924 933.869 138.603L946.835 160.295C939.853 166.445 931.542 171.099 921.901 174.257C912.427 177.249 902.536 178.745 892.231 178.745ZM1042.12 178.745C1031.31 178.745 1021.42 176.418 1012.44 171.764C1003.63 167.11 996.57 160.461 991.251 151.817C986.098 143.008 983.522 132.452 983.522 120.152C983.522 108.849 985.35 98.46 989.007 88.9853C992.83 79.5107 998.149 71.2827 1004.96 64.3013C1011.78 57.32 1019.68 51.9178 1028.65 48.0947C1037.79 44.2716 1047.77 42.36 1058.57 42.36C1069.71 42.36 1079.27 44.3547 1087.24 48.344C1095.39 52.3333 1101.54 58.4005 1105.7 66.5453C1109.85 74.524 1111.76 84.4973 1111.43 96.4653C1111.1 112.921 1108.11 127.383 1102.45 139.849C1096.8 152.15 1088.91 161.708 1078.77 168.523C1068.63 175.338 1056.41 178.745 1042.12 178.745ZM1050.09 152.067C1059.07 152.067 1066.97 149.989 1073.78 145.833C1080.6 141.512 1086 135.611 1089.99 128.131C1093.98 120.651 1095.97 112.007 1095.97 102.2C1095.97 91.8942 1092.9 83.7493 1086.75 77.7653C1080.6 71.7813 1071.95 68.7893 1060.82 68.7893C1052.01 68.7893 1044.11 70.9502 1037.13 75.272C1030.31 79.4276 1024.91 85.2453 1020.92 92.7253C1016.93 100.205 1014.94 108.849 1014.94 118.656C1014.94 128.962 1018.01 137.107 1024.16 143.091C1030.31 149.075 1038.96 152.067 1050.09 152.067ZM1082.76 177L1088.74 146.581L1097.22 111.176L1101.46 75.5213L1107.69 43.856H1138.86L1112.43 177H1082.76ZM1205.56 178.745C1196.92 178.745 1189.44 176.917 1183.12 173.26C1176.97 169.437 1172.49 164.118 1169.66 157.303C1167 150.321 1166.59 142.093 1168.41 132.619L1192.1 14.4347H1223.27L1199.58 132.369C1198.58 138.52 1199.25 143.506 1201.58 147.329C1203.9 151.152 1208.31 153.064 1214.79 153.064C1217.78 153.064 1220.77 152.648 1223.77 151.817C1226.92 150.82 1229.75 149.49 1232.24 147.828L1237.73 170.767C1233.07 173.759 1227.92 175.836 1222.27 177C1216.62 178.164 1211.05 178.745 1205.56 178.745ZM1159.69 68.7893L1164.42 43.856H1253.19L1248.2 68.7893H1159.69ZM1309.98 178.745C1298.34 178.745 1287.45 177.332 1277.31 174.507C1267.17 171.681 1259.36 168.273 1253.88 164.284L1266.84 140.348C1272.33 144.171 1279.14 147.329 1287.29 149.823C1295.6 152.15 1304.24 153.313 1313.22 153.313C1323.52 153.313 1331.09 151.9 1335.91 149.075C1340.89 146.249 1343.39 142.343 1343.39 137.356C1343.39 133.699 1341.64 130.956 1338.15 129.128C1334.66 127.3 1330.17 125.804 1324.69 124.64C1319.37 123.476 1313.55 122.23 1307.23 120.9C1301.08 119.57 1295.26 117.742 1289.78 115.415C1284.46 113.088 1280.06 109.68 1276.56 105.192C1273.07 100.704 1271.33 94.72 1271.33 87.24C1271.33 77.7653 1273.99 69.7036 1279.31 63.0547C1284.63 56.4058 1292.02 51.336 1301.5 47.8453C1311.14 44.1885 1322.19 42.36 1334.66 42.36C1343.64 42.36 1352.44 43.3573 1361.09 45.352C1369.73 47.3467 1376.88 50.1724 1382.53 53.8293L1371.06 77.7653C1365.08 73.9422 1358.6 71.2827 1351.61 69.7867C1344.8 68.2907 1338.15 67.5427 1331.67 67.5427C1321.53 67.5427 1313.96 69.1218 1308.98 72.28C1304.16 75.272 1301.75 79.0951 1301.75 83.7493C1301.75 87.4062 1303.49 90.232 1306.98 92.2267C1310.47 94.2213 1314.88 95.8836 1320.2 97.2133C1325.68 98.3769 1331.5 99.6236 1337.65 100.953C1343.97 102.117 1349.79 103.862 1355.1 106.189C1360.59 108.516 1365.08 111.924 1368.57 116.412C1372.06 120.734 1373.8 126.552 1373.8 133.865C1373.8 143.506 1371.06 151.734 1365.58 158.549C1360.26 165.198 1352.78 170.268 1343.14 173.759C1333.5 177.083 1322.44 178.745 1309.98 178.745Z" fill="black"/>
<path d="M235.872 178.745C225.068 178.745 215.178 176.418 206.202 171.764C197.392 167.11 190.328 160.461 185.008 151.817C179.856 143.008 177.279 132.452 177.279 120.152C177.279 108.849 179.108 98.46 182.764 88.9853C186.588 79.5107 191.907 71.2827 198.722 64.3013C205.537 57.32 213.432 51.9178 222.408 48.0947C231.551 44.2716 241.524 42.36 252.328 42.36C263.465 42.36 273.023 44.3547 281.002 48.344C289.147 52.3333 295.297 58.4005 299.452 66.5453C303.608 74.524 305.52 84.4973 305.187 96.4653C304.855 112.921 301.863 127.383 296.211 139.849C290.56 152.15 282.664 161.708 272.524 168.523C262.385 175.338 250.168 178.745 235.872 178.745ZM243.851 152.067C252.827 152.067 260.723 149.989 267.538 145.833C274.353 141.512 279.755 135.611 283.744 128.131C287.734 120.651 289.728 112.007 289.728 102.2C289.728 91.8942 286.653 83.7493 280.503 77.7653C274.353 71.7813 265.709 68.7893 254.572 68.7893C245.763 68.7893 237.867 70.9502 230.886 75.272C224.071 79.4276 218.668 85.2453 214.679 92.7253C210.69 100.205 208.695 108.849 208.695 118.656C208.695 128.962 211.77 137.107 217.92 143.091C224.071 149.075 232.714 152.067 243.851 152.067ZM276.514 177L282.498 146.581L290.975 111.176L295.214 75.5213L301.447 43.856H332.614L306.184 177H276.514ZM416.027 178.745C402.896 178.745 391.343 176.335 381.37 171.515C371.563 166.528 364 159.713 358.681 151.069C353.362 142.26 350.702 131.954 350.702 120.152C350.702 105.192 354.11 91.8942 360.925 80.2587C367.74 68.4569 377.131 59.2316 389.099 52.5827C401.067 45.7676 414.864 42.36 430.489 42.36C443.953 42.36 455.505 45.0196 465.146 50.3387C474.953 55.4916 482.516 63.2209 487.835 73.5267L461.157 87.24C458.165 80.9236 453.843 76.2693 448.191 73.2773C442.706 70.2853 435.974 68.7893 427.995 68.7893C419.352 68.7893 411.539 70.9502 404.558 75.272C397.577 79.4276 392.091 85.2453 388.102 92.7253C384.113 100.205 382.118 108.849 382.118 118.656C382.118 128.962 385.193 137.107 391.343 143.091C397.494 149.075 406.22 152.067 417.523 152.067C424.837 152.067 431.652 150.571 437.969 147.579C444.285 144.587 449.604 139.932 453.926 133.616L476.865 149.075C470.715 158.383 462.237 165.697 451.433 171.016C440.628 176.169 428.827 178.745 416.027 178.745ZM561.942 178.745C548.644 178.745 537.092 176.335 527.285 171.515C517.478 166.528 509.831 159.713 504.346 151.069C499.027 142.26 496.367 131.954 496.367 120.152C496.367 105.026 499.692 91.6449 506.341 80.0093C512.99 68.3738 522.049 59.2316 533.518 52.5827C545.154 45.7676 558.368 42.36 573.162 42.36C585.629 42.36 596.433 44.6871 605.575 49.3413C614.718 53.9956 621.782 60.7276 626.769 69.5373C631.922 78.1809 634.498 88.5698 634.498 100.704C634.498 103.862 634.332 107.104 633.999 110.428C633.667 113.752 633.168 116.828 632.503 119.653H519.555L523.046 98.9587H617.793L605.077 105.94C606.406 97.4627 605.825 90.3982 603.331 84.7467C600.838 79.0951 596.849 74.7733 591.363 71.7813C585.878 68.7893 579.312 67.2933 571.666 67.2933C562.524 67.2933 554.545 69.4542 547.73 73.776C541.081 77.9316 535.928 83.9156 532.271 91.728C528.614 99.3742 526.786 108.35 526.786 118.656C526.786 129.46 529.861 137.772 536.011 143.589C542.328 149.407 552.052 152.316 565.183 152.316C572.663 152.316 579.811 151.152 586.626 148.825C593.441 146.332 599.093 142.924 603.581 138.603L616.546 160.295C609.565 166.445 601.254 171.099 591.613 174.257C582.138 177.249 572.248 178.745 561.942 178.745Z" fill="#0A69FA"/>
<path d="M651.986 177L688.888 -8.00533H720.054L703.598 74.7733L693.874 109.431L688.888 140.847L681.657 177H651.986ZM732.521 178.745C721.55 178.745 712.076 176.834 704.097 173.011C696.118 169.021 689.968 163.204 685.646 155.557C681.325 147.911 679.164 138.436 679.164 127.133C679.164 114.667 680.66 103.28 683.652 92.9747C686.81 82.5027 691.381 73.5267 697.365 66.0467C703.515 58.4004 710.829 52.5827 719.306 48.5933C727.95 44.4378 737.757 42.36 748.728 42.36C759.698 42.36 769.589 44.6871 778.398 49.3413C787.208 53.8293 794.189 60.4782 799.342 69.288C804.661 77.9316 807.321 88.4036 807.321 100.704C807.321 112.007 805.409 122.396 801.586 131.871C797.929 141.345 792.693 149.573 785.878 156.555C779.063 163.536 771.085 169.021 761.942 173.011C752.966 176.834 743.159 178.745 732.521 178.745ZM730.028 152.067C739.004 152.067 746.899 149.989 753.714 145.833C760.529 141.512 765.932 135.611 769.921 128.131C773.91 120.651 775.905 112.007 775.905 102.2C775.905 91.8942 772.83 83.7493 766.68 77.7653C760.529 71.7813 751.886 68.7893 740.749 68.7893C731.939 68.7893 724.044 70.9502 717.062 75.272C710.247 79.4276 704.845 85.2453 700.856 92.7253C696.866 100.205 694.872 108.849 694.872 118.656C694.872 128.962 697.947 137.107 704.097 143.091C710.247 149.075 718.891 152.067 730.028 152.067Z" fill="black"/>
<path d="M32.7952 177.48C32.7952 177.48 39.2619 144.017 43.4055 124.429H100.315C171.693 124.429 209.311 15.4331 118.642 0H51.0351C42.1523 0 34.5519 6.36741 32.9904 15.1119L30.8661 27.0078H105.138C153.366 27.0078 153.366 98.3857 89.7046 98.3857H49.1929H16.0072L5.09303 152.315C2.46048 165.322 12.4042 177.48 25.6758 177.48H32.7952Z" fill="#0A69FA"/>
<path d="M87.7463 63.6793C85.0941 64.9409 79.6045 61.7138 76.9121 68.3781C75.6019 72.5687 67.7854 96.5151 64.8191 86.9365C58.047 62.9902 58.047 55.3663 50.5689 75.6431C44.3002 89.7927 46.655 92.2669 43.7759 85.8231C42.3004 82.5206 33.4753 66.7833 26.9444 55.3664H14.8672C11.4345 55.7346 5.4821 50.4273 8.86179 49.2998H22.9183C24.6186 49.2998 24.3757 50.2353 26.9444 55.3664C30.5525 55.3664 43.1325 68.3781 44.7447 68.3781C51.5168 63.8882 55.6622 26.6196 60.3129 43.1893C67.1042 67.3857 68.6102 75.1413 71.8214 62.9902C75.0326 50.839 77.8421 26.0015 83.2005 41.7377C86.0326 50.0546 88.7817 54.1734 89.8947 56.6072C90.9515 58.9181 90.041 62.5877 87.7463 63.6793Z" fill="#0A69FA"/>
<ellipse cx="95.4041" cy="62.4976" rx="3.11899" ry="3.0032" fill="#0A69FA"/>
<circle cx="102.89" cy="62.4975" r="2.44844" fill="#0A69FA"/>
<circle cx="109.162" cy="62.4978" r="1.83633" fill="#0A69FA"/>
</g>
<defs>
<clipPath id="clip0_547_12420">
<rect width="1404" height="177" rx="40" fill="white"/>
</clipPath>
</defs>
</svg>
